<svg xmlns="http://www.w3.org/2000/svg" viewBox="0 13.399999618530273 407.3999938964844 46.599998474121094" data-asc="1.011" width="407.3999938964844" height="46.599998474121094"><defs/><g fill="#0057af"><g transform="translate(0, 0)"><path d="M4.80 50.55Q2.45 50.55 1.22 49.32Q0 48.10 0 45.80L0 20.05Q0 17.75 1.22 16.52Q2.45 15.30 4.80 15.30L21.75 15.30Q23.55 15.30 24.45 16.20Q25.35 17.10 25.35 18.80Q25.35 20.55 24.45 21.47Q23.55 22.40 21.75 22.40L8.80 22.40L8.80 29.10L20.65 29.10Q22.40 29.10 23.33 30.00Q24.25 30.90 24.25 32.65Q24.25 34.40 23.33 35.30Q22.40 36.20 20.65 36.20L8.80 36.20L8.80 43.45L21.75 43.45Q23.55 43.45 24.45 44.38Q25.35 45.30 25.35 47Q25.35 48.75 24.45 49.65Q23.55 50.55 21.75 50.55L4.80 50.55ZM33.55 50.95Q31.90 50.95 30.90 50.05Q29.90 49.15 29.88 47.75Q29.85 46.35 31.00 44.90L38.40 35.90L38.40 39.85L31.60 31.55Q30.45 30.05 30.48 28.67Q30.50 27.30 31.50 26.40Q32.50 25.50 34.15 25.50Q35.75 25.50 36.78 26.02Q37.80 26.55 38.75 27.75L43.40 33.75L40.30 33.75L44.95 27.75Q45.90 26.55 46.95 26.02Q48 25.50 49.55 25.50Q51.25 25.50 52.23 26.40Q53.20 27.30 53.23 28.70Q53.25 30.10 52.05 31.55L45.25 39.85L45.25 35.90L52.70 44.90Q53.90 46.30 53.85 47.70Q53.80 49.10 52.80 50.02Q51.80 50.95 50.10 50.95Q48.55 50.95 47.50 50.42Q46.45 49.90 45.50 48.70L40.30 42.05L43.35 42.05L38.10 48.70Q37.20 49.85 36.18 50.40Q35.15 50.95 33.55 50.95ZM63.10 60Q61.00 60 59.85 58.85Q58.70 57.70 58.70 55.50L58.70 29.95Q58.70 27.80 59.83 26.65Q60.95 25.50 63.05 25.50Q65.20 25.50 66.33 26.65Q67.45 27.80 67.45 29.95L67.45 32.85L66.90 30.40Q67.60 28.15 69.83 26.77Q72.05 25.40 74.90 25.40Q78.10 25.40 80.53 26.95Q82.95 28.50 84.30 31.35Q85.65 34.20 85.65 38.25Q85.65 42.20 84.30 45.10Q82.95 48 80.53 49.55Q78.10 51.10 74.90 51.10Q72.15 51.10 69.95 49.80Q67.75 48.50 67.00 46.40L67.60 46.40L67.60 55.50Q67.60 57.70 66.43 58.85Q65.25 60 63.10 60M72.10 44.55Q73.45 44.55 74.48 43.88Q75.50 43.20 76.10 41.82Q76.70 40.45 76.70 38.25Q76.70 34.90 75.40 33.42Q74.10 31.95 72.10 31.95Q70.75 31.95 69.70 32.60Q68.65 33.25 68.05 34.63Q67.45 36 67.45 38.25Q67.45 41.55 68.75 43.05Q70.05 44.55 72.10 44.55ZM99.05 51.10Q94.25 51.10 91.98 48.52Q89.70 45.95 89.70 40.75L89.70 19.35Q89.70 17.15 90.85 16.00Q92.00 14.85 94.10 14.85Q96.25 14.85 97.43 16.00Q98.60 17.15 98.60 19.35L98.60 40.45Q98.60 42.30 99.33 43.15Q100.05 44 101.20 44Q101.55 44 101.93 43.92Q102.30 43.85 102.75 43.80Q103.60 43.80 104.03 44.45Q104.45 45.10 104.45 47.10Q104.45 48.85 103.75 49.72Q103.05 50.60 101.60 50.85Q101.20 50.90 100.45 51Q99.70 51.10 99.05 51.10ZM119.30 51.10Q115.20 51.10 112.15 49.55Q109.10 48 107.40 45.10Q105.70 42.20 105.70 38.25Q105.70 35.25 106.65 32.88Q107.60 30.50 109.40 28.82Q111.20 27.15 113.70 26.27Q116.20 25.40 119.30 25.40Q123.40 25.40 126.45 26.95Q129.50 28.50 131.18 31.37Q132.85 34.25 132.85 38.25Q132.85 41.20 131.90 43.60Q130.95 46 129.18 47.67Q127.40 49.35 124.88 50.22Q122.35 51.10 119.30 51.10M119.30 44.55Q120.65 44.55 121.70 43.88Q122.75 43.20 123.33 41.82Q123.90 40.45 123.90 38.25Q123.90 34.90 122.60 33.42Q121.30 31.95 119.30 31.95Q117.95 31.95 116.90 32.60Q115.85 33.25 115.25 34.63Q114.65 36 114.65 38.25Q114.65 41.55 115.95 43.05Q117.25 44.55 119.30 44.55ZM141.50 51Q139.30 51 138.13 49.85Q136.95 48.70 136.95 46.50L136.95 29.95Q136.95 27.80 138.08 26.65Q139.20 25.50 141.30 25.50Q143.40 25.50 144.50 26.65Q145.60 27.80 145.60 29.95L145.60 32.00L145.10 32.00Q145.60 29.00 147.68 27.25Q149.75 25.50 152.85 25.40Q154.30 25.35 155.03 26.12Q155.75 26.90 155.80 29.00Q155.80 30.80 155.05 31.85Q154.30 32.90 152.20 33.10L151.05 33.20Q148.40 33.45 147.20 34.67Q146.00 35.90 146.00 38.30L146.00 46.50Q146.00 48.70 144.85 49.85Q143.70 51 141.50 51ZM171.60 51.10Q167.10 51.10 163.83 49.52Q160.55 47.95 158.80 45.05Q157.05 42.15 157.05 38.20Q157.05 34.40 158.73 31.52Q160.40 28.65 163.33 27.02Q166.25 25.40 170.00 25.40Q172.75 25.40 175.00 26.27Q177.25 27.15 178.85 28.82Q180.45 30.50 181.28 32.85Q182.10 35.20 182.10 38.10Q182.10 39.10 181.55 39.57Q181.00 40.05 179.80 40.05L164.50 40.05L164.50 35.85L175.60 35.85L174.80 36.50Q174.80 34.65 174.30 33.50Q173.80 32.35 172.83 31.75Q171.85 31.15 170.40 31.15Q168.85 31.15 167.73 31.87Q166.60 32.60 166.00 34Q165.40 35.40 165.40 37.50L165.40 37.95Q165.40 41.50 166.98 43.02Q168.55 44.55 171.85 44.55Q172.95 44.55 174.38 44.27Q175.80 44 177.10 43.50Q178.40 43 179.35 43.32Q180.30 43.65 180.83 44.42Q181.35 45.20 181.40 46.17Q181.45 47.15 180.95 48.07Q180.45 49 179.30 49.50Q177.55 50.30 175.58 50.70Q173.60 51.10 171.60 51.10ZM212.70 51.10Q208.60 51.10 205.55 49.55Q202.50 48 200.80 45.10Q199.10 42.20 199.10 38.25Q199.10 35.25 200.05 32.88Q201.00 30.50 202.80 28.82Q204.60 27.15 207.10 26.27Q209.60 25.40 212.70 25.40Q216.80 25.40 219.85 26.95Q222.90 28.50 224.58 31.37Q226.25 34.25 226.25 38.25Q226.25 41.20 225.30 43.60Q224.35 46 222.58 47.67Q220.80 49.35 218.28 50.22Q215.75 51.10 212.70 51.10M212.70 44.55Q214.05 44.55 215.10 43.88Q216.15 43.20 216.73 41.82Q217.30 40.45 217.30 38.25Q217.30 34.90 216.00 33.42Q214.70 31.95 212.70 31.95Q211.35 31.95 210.30 32.60Q209.25 33.25 208.65 34.63Q208.05 36 208.05 38.25Q208.05 41.55 209.35 43.05Q210.65 44.55 212.70 44.55ZM239.55 51.10Q236.35 51.10 234.30 49.92Q232.25 48.75 231.23 46.40Q230.20 44.05 230.20 40.45L230.20 29.95Q230.20 27.75 231.35 26.62Q232.50 25.50 234.65 25.50Q236.80 25.50 237.95 26.62Q239.10 27.75 239.10 29.95L239.10 40.70Q239.10 42.50 239.85 43.40Q240.60 44.30 242.20 44.30Q244.00 44.30 245.15 43Q246.30 41.70 246.30 39.55L246.30 29.95Q246.30 27.75 247.45 26.62Q248.60 25.50 250.75 25.50Q252.90 25.50 254.05 26.62Q255.20 27.75 255.20 29.95L255.20 46.50Q255.20 51 250.90 51Q248.80 51 247.65 49.85Q246.50 48.70 246.50 46.50L246.50 43.60L247.30 46.05Q246.20 48.50 244.23 49.80Q242.25 51.10 239.55 51.10ZM264.95 51Q262.75 51 261.57 49.85Q260.40 48.70 260.40 46.50L260.40 29.95Q260.40 27.80 261.53 26.65Q262.65 25.50 264.75 25.50Q266.85 25.50 267.95 26.65Q269.05 27.80 269.05 29.95L269.05 32.00L268.55 32.00Q269.05 29.00 271.13 27.25Q273.20 25.50 276.30 25.40Q277.75 25.35 278.48 26.12Q279.20 26.90 279.25 29.00Q279.25 30.80 278.50 31.85Q277.75 32.90 275.65 33.10L274.50 33.20Q271.85 33.45 270.65 34.67Q269.45 35.90 269.45 38.30L269.45 46.50Q269.45 48.70 268.30 49.85Q267.15 51 264.95 51ZM310.70 51Q308.85 51 307.70 50.13Q306.55 49.25 305.90 47.40L296.15 20.25Q295.35 18.00 296.43 16.42Q297.50 14.85 300.25 14.85Q302.10 14.85 303.15 15.72Q304.20 16.60 304.80 18.45L312.25 40.80L309.90 40.80L317.90 18.45Q318.60 16.60 319.65 15.72Q320.70 14.85 322.35 14.85Q324 14.85 325 15.72Q326 16.60 326.65 18.50L334.15 40.80L332.15 40.80L339.80 18.45Q340.40 16.60 341.43 15.72Q342.45 14.85 344.30 14.85Q346.60 14.85 347.68 16.42Q348.75 18.00 347.90 20.25L338.05 47.45Q337.40 49.25 336.28 50.13Q335.15 51 333.30 51Q331.40 51 330.28 50.13Q329.15 49.25 328.50 47.40L321.45 27.60L322.70 27.60L315.50 47.45Q314.80 49.25 313.70 50.13Q312.60 51 310.70 51ZM359.40 51Q357.30 51 356.15 49.75Q355.00 48.50 355.00 46.15L355.00 30.35Q355.00 28.00 356.15 26.75Q357.30 25.50 359.40 25.50Q361.55 25.50 362.73 26.75Q363.90 28.00 363.90 30.35L363.90 46.15Q363.90 48.50 362.75 49.75Q361.60 51 359.40 51M359.40 21.95Q357.05 21.95 355.78 20.85Q354.50 19.75 354.50 17.65Q354.50 15.60 355.78 14.50Q357.05 13.40 359.40 13.40Q361.85 13.40 363.10 14.50Q364.35 15.60 364.35 17.65Q364.35 19.75 363.10 20.85Q361.85 21.95 359.40 21.95ZM373.45 51Q371.35 51 370.20 49.85Q369.05 48.70 369.05 46.50L369.05 19.35Q369.05 17.15 370.20 16.00Q371.35 14.85 373.45 14.85Q375.60 14.85 376.78 16.00Q377.95 17.15 377.95 19.35L377.95 35.85L378.05 35.85L384.15 28.45Q385.40 26.95 386.48 26.22Q387.55 25.50 389.40 25.50Q391.25 25.50 392.25 26.40Q393.25 27.30 393.30 28.65Q393.35 30.00 392.20 31.35L385.60 39.15L385.60 36.05L393.00 45.35Q394.10 46.75 393.90 48.07Q393.70 49.40 392.63 50.20Q391.55 51 389.90 51Q387.90 51 386.70 50.27Q385.50 49.55 384.30 48L378.05 40.30L377.95 40.30L377.95 46.50Q377.95 51 373.45 51ZM402.45 51Q400.35 51 399.20 49.75Q398.05 48.50 398.05 46.15L398.05 30.35Q398.05 28.00 399.20 26.75Q400.35 25.50 402.45 25.50Q404.60 25.50 405.78 26.75Q406.95 28.00 406.95 30.35L406.95 46.15Q406.95 48.50 405.80 49.75Q404.65 51 402.45 51M402.45 21.95Q400.10 21.95 398.83 20.85Q397.55 19.75 397.55 17.65Q397.55 15.60 398.83 14.50Q400.10 13.40 402.45 13.40Q404.90 13.40 406.15 14.50Q407.40 15.60 407.40 17.65Q407.40 19.75 406.15 20.85Q404.90 21.95 402.45 21.95Z"/></g></g></svg>